<?xml version="1.0" encoding="UTF-8" standalone="no"?>
<!-- Uploaded to: SVG Repo, www.svgrepo.com, Generator: SVG Repo Mixer Tools -->

<svg
   fill="#000000"
   height="800px"
   width="800px"
   version="1.1"
   id="Icons"
   viewBox="0 0 32 32"
   xml:space="preserve"
   sodipodi:docname="media-player-ui-button-repeat-loop.svg"
   inkscape:version="1.4.3 (0d15f75, 2025-12-25)"
   xmlns:inkscape="http://www.inkscape.org/namespaces/inkscape"
   xmlns:sodipodi="http://sodipodi.sourceforge.net/DTD/sodipodi-0.dtd"
   xmlns="http://www.w3.org/2000/svg"
   xmlns:svg="http://www.w3.org/2000/svg"><defs
   id="defs1" /><sodipodi:namedview
   id="namedview1"
   pagecolor="#505050"
   bordercolor="#ffffff"
   borderopacity="1"
   inkscape:showpageshadow="0"
   inkscape:pageopacity="0"
   inkscape:pagecheckerboard="1"
   inkscape:deskcolor="#505050"
   showgrid="false"
   inkscape:zoom="1.4142136"
   inkscape:cx="407.2935"
   inkscape:cy="411.18258"
   inkscape:window-width="2067"
   inkscape:window-height="1637"
   inkscape:window-x="1016"
   inkscape:window-y="282"
   inkscape:window-maximized="0"
   inkscape:current-layer="Icons" />
<path
   d="m 29.17638,11.276554 c -0.458655,-0.761207 -1.375964,-0.913448 -2.140388,-0.456724 -0.764424,0.456724 -0.917309,1.370172 -0.458655,2.131378 1.070194,1.522414 1.528849,3.34931 1.528849,5.176206 0,5.023965 -4.127891,9.134481 -9.17309,9.134481 h -6.115393 c -5.0451997,0 -9.1730902,-4.110516 -9.1730902,-9.134481 0,-5.023964 4.1278905,-9.1344806 9.1730902,-9.1344806 h 4.586544 v 2.1313786 c 0,0.608965 0.30577,1.06569 0.917309,1.370172 0.152885,0.152242 0.458655,0.152242 0.61154,0.152242 0.305769,0 0.611539,-0.152242 0.917309,-0.304483 L 24.43695,8.6884507 c 0.611539,-0.3044827 0.764424,-0.7612067 0.764424,-1.2179308 0,-0.456724 -0.152885,-0.9134481 -0.611539,-1.2179308 L 20.00329,2.5987967 C 19.544635,2.294314 18.933096,2.1420727 18.321556,2.4465554 17.862902,2.751038 17.557132,3.2077621 17.557132,3.8167275 v 2.1313789 h -4.586545 c -6.726932,0 -12.23078605,5.4806886 -12.23078605,12.1793076 0,6.69862 5.50385405,12.179308 12.23078605,12.179308 h 6.115394 c 6.726932,0 12.230786,-5.480688 12.230786,-12.179308 0,-2.435861 -0.764424,-4.871723 -2.140387,-6.85086 z"
   id="path1"
   style="fill:#ffffff;fill-opacity:1;stroke:#000000;stroke-width:1.15323;stroke-dasharray:none;stroke-opacity:1" />
</svg>
